# Blender v2.82 (sub 7) OBJ File: 'bench.blend'
# www.blender.org
mtllib bench.mtl
o Cube
v 0.296216 -0.063586 -2.728794
v 0.296216 -0.063586 2.728794
v -0.511086 -0.063586 2.728793
v -0.511086 -0.063586 -2.728795
v 0.296216 0.060716 -2.728793
v 0.296216 0.060716 2.728796
v -0.511086 0.060716 2.728793
v -0.511086 0.060716 -2.728794
v -0.611663 0.477226 -2.728794
v -0.611663 0.477226 2.728794
v -0.611663 1.404647 2.728793
v -0.611663 1.404647 -2.728795
v -0.487360 0.477226 -2.728793
v -0.487360 0.477227 2.728796
v -0.487360 1.404647 2.728793
v -0.487360 1.404647 -2.728794
v 0.299469 -0.187103 -1.834912
v 0.299469 -0.187103 -1.954998
v 0.300991 -0.075571 -1.954998
v 0.300991 -0.075571 -1.834912
v 0.409906 -0.154679 -1.954998
v 0.398483 -0.128691 -1.954998
v 0.377350 -0.105205 -1.954998
v 0.352061 -0.089720 -1.954998
v 0.322800 -0.079218 -1.954998
v 0.322800 -0.079218 -1.834912
v 0.352061 -0.089720 -1.834912
v 0.377350 -0.105205 -1.834912
v 0.398483 -0.128691 -1.834912
v 0.409906 -0.154679 -1.834912
v -0.500030 -0.186707 -1.834912
v -0.500030 -0.186707 -1.954998
v -0.498509 -0.075176 -1.954998
v -0.498509 -0.075176 -1.834912
v -0.745543 -0.100653 -1.834912
v -0.745543 -0.100653 -1.954998
v -0.609174 -0.100653 -1.834912
v -0.609174 -0.100653 -1.954998
v 0.414500 -0.174880 -1.954998
v 0.414500 -0.174880 -1.834912
v 0.375357 -0.901287 -1.834912
v 0.375357 -0.901287 -1.954998
v 0.490388 -0.889064 -1.954998
v 0.490388 -0.889064 -1.834912
v -0.745543 -0.171102 -1.954998
v -0.745543 -0.171102 -1.834912
v -0.609174 -0.189646 -1.954998
v -0.609174 -0.189646 -1.834912
v -0.832660 -0.879958 -1.954998
v -0.832660 -0.879958 -1.834912
v -0.713181 -0.898501 -1.954998
v -0.713181 -0.898501 -1.834912
v 0.299469 -0.187103 1.932393
v 0.299469 -0.187103 1.812794
v 0.300991 -0.075571 1.812794
v 0.300991 -0.075571 1.932393
v 0.409906 -0.154679 1.812794
v 0.398483 -0.128691 1.812794
v 0.377350 -0.105205 1.812794
v 0.352061 -0.089720 1.812794
v 0.322800 -0.079218 1.812794
v 0.322800 -0.079218 1.932393
v 0.352061 -0.089720 1.932393
v 0.377350 -0.105205 1.932393
v 0.398483 -0.128691 1.932393
v 0.409906 -0.154679 1.932393
v -0.500030 -0.186707 1.933232
v -0.500030 -0.186707 1.812794
v -0.498509 -0.075176 1.812794
v -0.498509 -0.075176 1.933232
v -0.745543 -0.100653 1.812794
v -0.609174 -0.100653 1.933232
v -0.609174 -0.100653 1.812794
v 0.414500 -0.174880 1.812794
v 0.414500 -0.174880 1.933175
v 0.375357 -0.901287 1.932393
v 0.375357 -0.901287 1.812794
v 0.490388 -0.889064 1.812794
v 0.490388 -0.889064 1.933175
v -0.745543 -0.171102 1.812794
v -0.745543 -0.117239 1.932393
v -0.609174 -0.189646 1.812794
v -0.832660 -0.879958 1.812794
v -0.832660 -0.879958 1.932393
v -0.713181 -0.898501 1.812794
v -0.713181 -0.898501 1.933232
v 0.299469 -0.187103 1.933232
v 0.300991 -0.075571 1.933232
v 0.322800 -0.079218 1.933232
v 0.352061 -0.089720 1.933232
v 0.377350 -0.105205 1.933232
v 0.398483 -0.128691 1.933232
v 0.409906 -0.154679 1.933232
v 0.414500 -0.174880 1.933232
v 0.375357 -0.901287 1.933232
v 0.490388 -0.889064 1.933232
v -0.609174 -0.189646 1.933232
v -0.487360 0.477226 -1.936375
v -0.487360 0.477226 -1.846929
v -0.487360 0.477226 1.836950
v -0.487360 0.477227 1.939875
v -0.487360 1.404647 1.939873
v -0.487360 1.404647 1.836947
v -0.487360 1.404647 -1.846931
v -0.487360 1.404647 -1.936377
v -0.611663 1.404647 -1.936377
v -0.611663 1.404647 -1.846931
v -0.611663 1.404647 1.836947
v -0.611663 1.404647 1.939873
v -0.611663 0.477226 -1.936376
v -0.611663 0.477226 -1.846931
v -0.611663 0.477226 1.836948
v -0.611663 0.477226 1.939874
v -0.487360 0.477226 -0.004990
v -0.487360 1.404647 -0.004992
v -0.611663 1.404647 -0.004992
v -0.611663 0.477226 -0.004991
v -0.745543 1.404647 -1.936377
v -0.745543 1.404647 -1.846931
v -0.745543 1.404647 1.836947
v -0.745543 1.404647 1.939873
v -0.745543 0.477226 -1.936376
v -0.745543 0.477226 -1.846931
v -0.745543 0.477226 1.836948
v -0.745543 0.477226 1.939874
v -0.511086 -0.063586 1.924812
v -0.511086 -0.063586 1.817017
v -0.511086 -0.063586 -1.832628
v -0.511086 -0.063586 -1.952967
v 0.296216 -0.063586 1.924813
v 0.296216 -0.063586 1.817017
v 0.296216 -0.063586 -1.832627
v 0.296216 -0.063586 -1.952966
v 0.296216 0.060716 -1.952965
v 0.296216 0.060716 -1.832625
v 0.296216 0.060716 1.817019
v 0.296216 0.060716 1.924815
v -0.511086 0.060716 -1.952966
v -0.511086 0.060716 -1.832627
v -0.511086 0.060716 1.817017
v -0.511086 0.060716 1.924812
vn 1.0000 0.0000 0.0000
vn 0.0000 -1.0000 0.0000
vn -0.0000 -0.0000 1.0000
vn -1.0000 -0.0000 0.0000
vn 0.0000 -0.0000 -1.0000
vn 0.1649 0.9863 0.0000
vn -0.0005 -1.0000 0.0000
vn 0.9155 0.4024 -0.0000
vn 0.7434 0.6689 0.0000
vn 0.5222 0.8528 0.0000
vn 0.3378 0.9412 -0.0000
vn -0.9999 0.0136 0.0000
vn 0.9751 0.2218 -0.0000
vn 0.1057 -0.9944 0.0000
vn -0.9944 -0.1057 0.0000
vn 0.9944 0.1057 0.0000
vn -0.1534 -0.9882 0.0000
vn 0.9894 -0.1452 0.0000
vn -0.9925 0.1220 0.0000
vn -0.0000 1.0000 -0.0000
vn -0.9922 0.1133 -0.0510
vn -0.0069 0.0010 1.0000
vn -0.0061 0.0000 1.0000
vn -0.0058 0.0007 1.0000
vn -0.2243 0.9745 0.0000
vn 0.0269 -0.9996 0.0000
vn 0.2243 -0.9745 0.0000
vn -0.0269 0.9996 0.0000
vn 1.0000 0.0043 0.0000
vn 0.0000 -0.0115 0.9999
vn -0.0046 -0.0126 0.9999
vn 0.0000 0.0418 -0.9991
vn -1.0000 -0.0043 0.0000
vn 0.0000 -0.0208 -0.9998
vn 0.0000 0.0208 0.9998
vn 0.0000 0.0322 -0.9995
vn -0.0000 -0.1671 0.9859
vn 0.0001 0.1727 -0.9850
vn -0.6776 -0.7354 0.0000
vn 0.6776 0.7354 0.0000
vn -0.0001 -0.1935 0.9811
vn 0.9290 0.3701 0.0000
vn -0.0000 -0.1873 0.9823
vn 0.0000 -0.5748 -0.8183
vn 0.0003 0.5880 0.8089
vn -0.9290 -0.3701 0.0000
vn 0.0002 0.3324 -0.9431
vn 0.0000 0.3423 -0.9396
usemtl Material
s off
f 11//1 113//1 109//1
f 106//2 16//2 105//2
f 1//3 8//3 4//3
f 101//4 15//4 102//4
f 9//3 16//3 12//3
f 11//5 14//5 10//5
f 25//6 20//6 26//6
f 17//7 32//7 18//7
f 17//3 26//3 20//3
f 25//5 18//5 19//5
f 21//5 18//5 22//5
f 22//5 18//5 23//5
f 23//5 18//5 24//5
f 24//5 18//5 25//5
f 17//3 30//3 29//3
f 17//3 29//3 28//3
f 17//3 28//3 27//3
f 17//3 27//3 26//3
f 39//5 42//5 18//5
f 21//5 39//5 18//5
f 40//3 30//3 17//3
f 21//8 29//8 30//8
f 22//9 28//9 29//9
f 23//10 27//10 28//10
f 24//11 26//11 27//11
f 32//12 34//12 33//12
f 17//3 34//3 31//3
f 18//5 33//5 19//5
f 137//2 7//2 141//2
f 36//4 46//4 35//4
f 30//13 39//13 21//13
f 41//14 43//14 44//14
f 18//15 41//15 17//15
f 40//16 43//16 39//16
f 17//3 44//3 40//3
f 48//3 50//3 52//3
f 37//1 47//1 38//1
f 37//3 46//3 48//3
f 38//5 45//5 36//5
f 51//17 50//17 49//17
f 47//5 49//5 45//5
f 48//18 51//18 47//18
f 45//19 50//19 46//19
f 61//6 56//6 62//6
f 53//7 68//7 54//7
f 61//5 54//5 55//5
f 57//5 54//5 58//5
f 58//5 54//5 59//5
f 59//5 54//5 60//5
f 60//5 54//5 61//5
f 74//5 77//5 54//5
f 57//5 74//5 54//5
f 57//8 65//8 66//8
f 58//9 64//9 65//9
f 59//10 63//10 64//10
f 60//11 62//11 63//11
f 68//12 70//12 69//12
f 54//5 69//5 55//5
f 133//1 5//1 134//1
f 66//13 74//13 57//13
f 76//14 78//14 79//14
f 54//15 76//15 53//15
f 75//16 78//16 74//16
f 72//1 82//1 73//1
f 73//5 80//5 71//5
f 85//17 84//17 83//17
f 82//5 83//5 80//5
f 101//20 10//20 14//20
f 80//21 84//21 81//21
f 25//6 19//6 20//6
f 17//7 31//7 32//7
f 39//5 43//5 42//5
f 21//8 22//8 29//8
f 22//9 23//9 28//9
f 23//10 24//10 27//10
f 24//11 25//11 26//11
f 32//12 31//12 34//12
f 17//3 20//3 34//3
f 18//5 32//5 33//5
f 129//2 1//2 133//2
f 36//4 45//4 46//4
f 30//13 40//13 39//13
f 41//14 42//14 43//14
f 18//15 42//15 41//15
f 40//16 44//16 43//16
f 17//3 41//3 44//3
f 48//3 46//3 50//3
f 37//1 48//1 47//1
f 37//3 35//3 46//3
f 38//5 47//5 45//5
f 51//17 52//17 50//17
f 47//5 51//5 49//5
f 48//18 52//18 51//18
f 45//19 49//19 50//19
f 61//6 55//6 56//6
f 53//7 67//7 68//7
f 74//5 78//5 77//5
f 57//8 58//8 65//8
f 58//9 59//9 64//9
f 59//10 60//10 63//10
f 60//11 61//11 62//11
f 68//12 67//12 70//12
f 54//5 68//5 69//5
f 7//4 126//4 3//4
f 71//4 80//4 81//4
f 66//13 75//13 74//13
f 76//14 77//14 78//14
f 54//15 77//15 76//15
f 75//16 79//16 78//16
f 73//5 82//5 80//5
f 85//17 86//17 84//17
f 82//5 85//5 83//5
f 80//19 83//19 84//19
f 87//3 89//3 88//3
f 87//3 93//3 92//3
f 87//3 92//3 91//3
f 87//3 91//3 90//3
f 87//3 90//3 89//3
f 94//3 93//3 87//3
f 87//3 70//3 67//3
f 87//3 96//3 94//3
f 97//22 84//22 86//22
f 72//23 81//23 97//23
f 87//3 88//3 70//3
f 87//3 95//3 96//3
f 97//24 81//24 84//24
f 69//25 72//25 70//25
f 73//25 72//25 69//25
f 70//3 72//3 67//3
f 67//3 72//3 97//3
f 82//26 67//26 97//26
f 68//26 67//26 82//26
f 73//5 69//5 82//5
f 68//5 82//5 69//5
f 38//5 33//5 47//5
f 47//5 33//5 32//5
f 38//25 34//25 33//25
f 37//27 38//27 34//27
f 37//5 34//5 31//5
f 37//5 31//5 48//5
f 47//28 48//28 31//28
f 47//28 31//28 32//28
f 6//3 3//3 2//3
f 97//18 86//18 82//18
f 85//18 82//18 86//18
f 13//20 110//20 98//20
f 98//20 111//20 99//20
f 114//20 112//20 100//20
f 100//20 113//20 101//20
f 13//4 105//4 16//4
f 98//4 104//4 105//4
f 114//4 103//4 115//4
f 100//4 102//4 103//4
f 15//2 109//2 102//2
f 109//2 103//2 102//2
f 116//2 104//2 115//2
f 107//2 105//2 104//2
f 106//1 9//1 12//1
f 110//3 118//3 122//3
f 108//1 117//1 116//1
f 112//3 120//3 124//3
f 116//1 111//1 107//1
f 108//2 115//2 103//2
f 99//4 115//4 104//4
f 99//20 117//20 114//20
f 119//1 122//1 118//1
f 121//1 124//1 120//1
f 113//20 124//20 125//20
f 110//20 123//20 111//20
f 109//2 120//2 108//2
f 113//5 121//5 109//5
f 107//2 118//2 106//2
f 111//5 119//5 107//5
f 73//29 113//29 72//29
f 73//29 112//29 113//29
f 125//30 72//30 113//30
f 81//31 72//31 125//31
f 81//4 125//4 71//4
f 124//4 71//4 125//4
f 112//32 71//32 124//32
f 73//32 71//32 112//32
f 37//33 110//33 38//33
f 111//29 37//29 110//29
f 111//34 37//34 123//34
f 37//35 123//35 35//35
f 35//4 123//4 122//4
f 35//4 123//4 36//4
f 123//1 36//1 122//1
f 110//36 36//36 122//36
f 38//36 36//36 110//36
f 11//1 10//1 113//1
f 106//2 12//2 16//2
f 101//4 14//4 15//4
f 9//3 13//3 16//3
f 11//5 15//5 14//5
f 101//20 113//20 10//20
f 13//20 9//20 110//20
f 98//20 110//20 111//20
f 114//20 117//20 112//20
f 100//20 112//20 113//20
f 13//4 98//4 105//4
f 98//4 99//4 104//4
f 114//4 100//4 103//4
f 100//4 101//4 102//4
f 15//2 11//2 109//2
f 109//2 108//2 103//2
f 116//2 107//2 104//2
f 107//2 106//2 105//2
f 106//1 110//1 9//1
f 110//3 106//3 118//3
f 108//1 112//1 117//1
f 112//3 108//3 120//3
f 116//1 117//1 111//1
f 108//2 116//2 115//2
f 99//4 114//4 115//4
f 99//20 111//20 117//20
f 119//1 123//1 122//1
f 121//1 125//1 124//1
f 113//20 112//20 124//20
f 110//20 122//20 123//20
f 109//2 121//2 120//2
f 113//5 125//5 121//5
f 107//2 119//2 118//2
f 111//5 123//5 119//5
f 129//4 8//4 4//4
f 126//4 140//4 127//4
f 127//4 139//4 128//4
f 128//4 138//4 129//4
f 3//2 130//2 2//2
f 126//2 131//2 130//2
f 127//2 132//2 131//2
f 128//2 133//2 132//2
f 2//1 137//1 6//1
f 130//1 136//1 137//1
f 131//1 135//1 136//1
f 132//1 134//1 135//1
f 5//2 138//2 8//2
f 134//2 139//2 138//2
f 135//2 140//2 139//2
f 136//2 141//2 140//2
f 133//37 129//37 19//37
f 19//38 33//38 129//38
f 34//39 129//39 33//39
f 129//40 128//40 34//40
f 34//41 20//41 128//41
f 20//42 19//42 133//42
f 133//42 132//42 20//42
f 128//43 20//43 132//43
f 126//44 130//44 88//44
f 88//45 126//45 70//45
f 130//46 131//46 88//46
f 131//46 55//46 88//46
f 126//39 127//39 70//39
f 127//39 69//39 70//39
f 55//47 69//47 131//47
f 69//48 127//48 131//48
f 1//3 5//3 8//3
f 137//2 6//2 7//2
f 133//1 1//1 5//1
f 129//2 4//2 1//2
f 7//4 141//4 126//4
f 6//3 7//3 3//3
f 129//4 138//4 8//4
f 126//4 141//4 140//4
f 127//4 140//4 139//4
f 128//4 139//4 138//4
f 3//2 126//2 130//2
f 126//2 127//2 131//2
f 127//2 128//2 132//2
f 128//2 129//2 133//2
f 2//1 130//1 137//1
f 130//1 131//1 136//1
f 131//1 132//1 135//1
f 132//1 133//1 134//1
f 5//2 134//2 138//2
f 134//2 135//2 139//2
f 135//2 136//2 140//2
f 136//2 137//2 141//2
l 56 70
