# Blender v2.82 (sub 7) OBJ File: ''
# www.blender.org
mtllib painting2.mtl
o Cube.002
v 0.235727 10.001379 2.593811
v -0.235727 10.001379 2.593811
v -0.235727 10.001379 2.838850
v 0.235727 10.001379 2.838850
v 0.235727 9.533691 2.838850
v -0.235727 9.533691 2.838850
v -0.235727 9.533691 -2.574498
v -0.235727 10.001379 -2.574498
v -0.235727 10.001379 -2.839229
v -0.235727 9.533691 -2.839229
v -0.235727 0.042646 2.593809
v 0.235727 0.042646 2.593809
v 0.235727 0.042646 2.838848
v -0.235727 0.042646 2.838848
v 0.235727 10.001379 -2.839229
v 0.235727 9.533691 -2.839229
v 0.235727 10.001379 -2.574498
v -0.235727 0.042646 -2.839231
v 0.235727 0.042646 -2.839231
v 0.235727 0.042646 -2.574500
v -0.235727 0.042646 -2.574500
v -0.235727 9.533691 2.593811
v -0.235727 0.615253 -2.574500
v -0.235727 0.615253 2.593809
v 0.038415 0.615253 2.593809
v 0.038415 0.615253 -2.574500
v -0.235727 0.615252 2.838848
v 0.235727 0.615253 -2.839231
v -0.235727 0.615253 -2.839231
v 0.235727 0.615252 2.838848
v 0.038415 9.533691 2.593811
v 0.038415 9.533691 -2.574498
v 0.038415 0.615253 2.593809
v 0.038415 0.615253 -2.574500
v 0.038415 9.533691 2.593811
v 0.038415 9.533691 -2.574498
v 0.235727 9.533691 2.593811
v 0.235727 9.533691 -2.574498
v 0.235727 0.615253 -2.574500
v 0.235727 0.615253 2.593809
vt 0.246050 -0.199756
vt 0.229704 -0.202804
vt 0.237507 -0.206996
vt 0.245841 -0.204115
vt 0.260193 -0.207825
vt 0.243894 -0.222965
vt 0.222357 -0.057757
vt 0.239470 -0.083825
vt 0.248428 -0.081079
vt 0.250562 -0.066091
vt 0.687908 -0.183712
vt 0.673946 -0.179409
vt 0.673241 -0.183799
vt 0.680902 -0.186325
vt 0.256451 -0.084444
vt 0.269505 -0.079381
vt 0.690046 -0.073408
vt 0.682620 -0.075626
vt 0.681981 -0.079895
vt 0.697054 -0.077647
vt 0.211944 -0.231855
vt 0.254766 -0.089280
vt 0.715723 -0.046229
vt 0.705639 -0.212110
vt 0.719456 -0.219854
vt 0.729298 -0.036687
vt 0.680682 -0.204620
vt 0.683837 -0.055273
vt 0.666519 -0.070322
vt 0.658508 -0.191052
vt 0.197893 -0.241763
vt 0.208026 -0.049710
vt 0.993134 0.005455
vt 0.993134 0.997094
vt 0.003787 0.997094
vt 0.003787 0.005455
vt 0.261456 -0.201621
vt 0.272252 -0.086967
vt 0.664603 -0.076857
vt 0.654733 -0.184108
vn 0.0000 1.0000 0.0000
vn 0.0000 -0.0000 1.0000
vn -1.0000 0.0000 0.0000
vn 0.0000 -1.0000 -0.0000
vn 0.0000 0.0000 -1.0000
vn 1.0000 0.0000 0.0000
usemtl Material.003
s 1
f 1/1/1 2/2/1 3/3/1 4/4/1
f 5/5/2 4/4/2 3/3/2 6/6/2
f 7/7/3 8/8/3 9/9/3 10/10/3
f 11/11/4 12/12/4 13/13/4 14/14/4
f 10/10/5 9/9/5 15/15/5 16/16/5
f 18/17/4 19/18/4 20/19/4 21/20/4
f 21/20/4 20/19/4 12/12/4 11/11/4
f 6/6/3 3/3/3 2/2/3 22/21/3
f 22/21/3 2/2/3 8/8/3 7/7/3
f 15/15/1 9/9/1 8/8/1 17/22/1
f 17/22/1 8/8/1 2/2/1 1/1/1
f 23/23/1 24/24/1 25/25/1 26/26/1
f 27/27/3 6/6/3 22/21/3 24/24/3
f 29/28/5 10/10/5 16/16/5 28/29/5
f 23/23/3 7/7/3 10/10/3 29/28/3
f 30/30/2 5/5/2 6/6/2 27/27/2
f 13/13/2 30/30/2 27/27/2 14/14/2
f 21/20/3 23/23/3 29/28/3 18/17/3
f 18/17/5 29/28/5 28/29/5 19/18/5
f 14/14/3 27/27/3 24/24/3 11/11/3
f 11/11/3 24/24/3 23/23/3 21/20/3
f 24/24/5 22/21/5 31/31/5 25/25/5
f 22/21/4 7/7/4 32/32/4 31/31/4
f 7/7/2 23/23/2 26/26/2 32/32/2
f 33/33/3 35/34/3 36/35/3 34/36/3
f 37/37/6 1/1/6 4/4/6 5/5/6
f 16/16/6 15/15/6 17/22/6 38/38/6
f 38/38/6 17/22/6 1/1/6 37/37/6
f 39/39/6 38/38/6 37/37/6 40/40/6
f 28/29/6 16/16/6 38/38/6 39/39/6
f 40/40/6 37/37/6 5/5/6 30/30/6
f 12/12/6 40/40/6 30/30/6 13/13/6
f 19/18/6 28/29/6 39/39/6 20/19/6
f 20/19/6 39/39/6 40/40/6 12/12/6
