# Blender v2.82 (sub 7) OBJ File: 'picture1.blend'
# www.blender.org
mtllib painting_v.mtl
o Cube
v 0.235727 10.001379 -2.839231
v 0.235727 0.042646 -2.839231
v 0.235727 10.001379 2.838848
v 0.235727 0.042646 2.838848
v -0.235727 10.001379 -2.839231
v -0.235727 0.042646 -2.839231
v -0.235727 10.001379 2.838848
v -0.235727 0.042646 2.838848
v -0.235727 0.042646 -2.574500
v -0.235727 0.042646 2.593809
v 0.235727 10.001379 -2.574500
v 0.235727 10.001379 2.593809
v -0.235727 10.001379 2.593809
v -0.235727 10.001379 -2.574500
v 0.235727 0.042646 2.593809
v 0.235727 0.042646 -2.574500
v 0.235727 9.533691 -2.839231
v -0.235727 9.533691 2.838848
v 0.235727 9.533691 2.838848
v -0.235727 9.533691 -2.839231
v 0.235727 9.533691 -2.574500
v 0.235727 9.533691 2.593809
v -0.235727 9.533691 2.593809
v -0.235727 9.533691 -2.574500
v 0.235727 0.615253 -2.839231
v 0.235727 0.615253 2.838848
v -0.235727 0.615253 -2.839231
v 0.235727 0.615253 -2.574500
v 0.235727 0.615253 2.593809
v -0.235727 0.615253 2.593809
v -0.235727 0.615253 -2.574500
v -0.235727 0.615253 2.838848
v 0.038415 9.533691 2.593809
v 0.038415 9.533691 -2.574500
v 0.038415 0.615253 2.593809
v 0.038415 0.615253 -2.574500
vt -1.253171 1.071843
vt -1.253170 2.525764
vt -1.538734 2.525764
vt -1.538734 1.071843
vt -1.538734 1.003563
vt -2.399903 1.071843
vt -2.399903 1.003563
vt -0.001838 1.003433
vt -0.001837 1.071713
vt -0.338089 1.071713
vt -0.338089 1.003433
vt -1.253171 -1.539217
vt -1.253171 -0.085298
vt -1.538734 -0.085297
vt -1.538735 -1.539217
vt -1.253171 1.003563
vt -0.677564 1.071843
vt -0.677564 1.003563
vt -0.966114 1.071843
vt -0.966114 1.003563
vt -0.677564 -1.539217
vt -0.677564 -0.085298
vt -0.966114 -0.085298
vt -0.966114 -1.539217
vt 1.302205 1.003433
vt 1.302205 1.071713
vt 1.004022 1.071713
vt 1.004022 1.003433
vt -0.677564 2.525764
vt -0.966114 2.525764
vt -0.001838 -0.001830
vt 1.004022 -0.001830
vt 1.004022 -0.001830
vt -0.001838 -0.001830
vt 1.302205 -0.001830
vt -0.966114 -0.001700
vt -1.253171 -0.001700
vt -0.677564 -0.001700
vt -0.338089 -0.001830
vt -1.538734 -0.001700
vt -2.399904 -0.001700
vt -2.399903 -0.085297
vt -0.001838 -0.085427
vt -0.338089 -0.085427
vt 1.302205 -0.085427
vt 1.004022 -0.085427
vt 1.004022 1.003433
vt -0.001838 1.003433
vn 0.0000 1.0000 0.0000
vn 0.0000 0.0000 1.0000
vn -1.0000 0.0000 0.0000
vn 0.0000 -1.0000 0.0000
vn 1.0000 0.0000 0.0000
vn 0.0000 0.0000 -1.0000
g Cube_Cube_Material
usemtl Material
s off
f 12/1/1 13/2/1 7/3/1 3/4/1
f 19/5/2 3/4/2 7/6/2 18/7/2
f 24/8/3 14/9/3 5/10/3 20/11/3
f 10/12/4 15/13/4 4/14/4 8/15/4
f 22/16/5 12/1/5 3/4/5 19/5/5
f 20/11/6 5/10/6 1/17/6 17/18/6
f 17/18/5 1/17/5 11/19/5 21/20/5
f 21/20/5 11/19/5 12/1/5 22/16/5
f 6/21/4 2/22/4 16/23/4 9/24/4
f 9/24/4 16/23/4 15/13/4 10/12/4
f 18/25/3 7/26/3 13/27/3 23/28/3
f 23/28/3 13/27/3 14/9/3 24/8/3
f 1/17/1 5/29/1 14/30/1 11/19/1
f 11/19/1 14/30/1 13/2/1 12/1/1
f 31/31/1 30/32/1 35/33/1 36/34/1
f 32/35/3 18/25/3 23/28/3 30/32/3
f 28/36/5 21/20/5 22/16/5 29/37/5
f 25/38/5 17/18/5 21/20/5 28/36/5
f 27/39/6 20/11/6 17/18/6 25/38/6
f 29/37/5 22/16/5 19/5/5 26/40/5
f 31/31/3 24/8/3 20/11/3 27/39/3
f 26/40/2 19/5/2 18/7/2 32/41/2
f 4/14/2 26/40/2 32/41/2 8/42/2
f 9/43/3 31/31/3 27/39/3 6/44/3
f 15/13/5 29/37/5 26/40/5 4/14/5
f 6/44/6 27/39/6 25/38/6 2/22/6
f 2/22/5 25/38/5 28/36/5 16/23/5
f 16/23/5 28/36/5 29/37/5 15/13/5
f 8/45/3 32/35/3 30/32/3 10/46/3
f 10/46/3 30/32/3 31/31/3 9/43/3
f 35/33/3 33/47/3 34/48/3 36/34/3
f 30/32/6 23/28/6 33/47/6 35/33/6
f 23/28/4 24/8/4 34/48/4 33/47/4
f 24/8/2 31/31/2 36/34/2 34/48/2
